<svg width="25" height="16" viewBox="0 0 25 16" fill="none" xmlns="http://www.w3.org/2000/svg">
<path d="M24.757 12.0872C24.757 12.9862 23.4682 13.1291 23.2771 12.2489C23.2172 11.9706 23.1572 11.6734 23.0973 11.3687C23.0561 11.1618 23.0073 10.9098 22.9549 10.6578C22.865 11.143 22.7863 11.6772 22.7263 12.0872C22.3929 14.3554 22.1681 15.8562 21.0628 15.8562C19.9576 15.8562 19.8039 14.5435 19.3918 9.5218C19.3431 8.90114 19.2832 8.17892 19.2157 7.47175C19.152 8.17892 19.0921 8.90114 19.0396 9.5218C18.6312 14.5435 18.4776 15.8562 17.3724 15.8562C16.2671 15.8562 16.136 14.7353 15.7013 8.44223C15.6489 7.6824 15.5927 6.83229 15.5252 6.00851C15.4616 6.83229 15.4054 7.6824 15.3529 8.44223C14.9183 14.7353 14.7572 15.8562 13.6819 15.8562C12.6066 15.8562 12.4455 14.7616 12.0109 8.6115C11.9622 7.87048 11.9022 7.04294 11.8385 6.24173C11.7748 7.04294 11.7149 7.87424 11.6624 8.61526C11.2316 14.7616 11.0667 15.8562 9.99516 15.8562C8.92361 15.8562 8.72879 14.5472 8.32415 9.99951C8.27544 9.43152 8.21549 8.76949 8.14805 8.1225C8.08436 8.76949 8.02441 9.43152 7.97571 9.99951C7.57107 14.5472 7.40247 15.8562 6.30844 15.8562C5.21441 15.8562 5.03832 14.5397 4.63742 10.3681C4.58872 9.84153 4.52877 9.22463 4.46133 8.62279C4.39764 9.22463 4.33769 9.84153 4.28898 10.3681C3.88809 14.5397 3.70825 15.8562 2.62171 15.8562C1.53518 15.8562 1.29165 14.4908 0.961939 12.6025C0.913232 12.3354 0.853285 12.0007 0.793338 11.6696C0.785845 11.6245 0.778352 11.5756 0.778352 11.5305C0.778352 10.6164 2.08969 10.4923 2.26578 11.3875C2.32573 11.6847 2.38193 12.0044 2.43813 12.343C2.46061 12.4859 2.49058 12.6476 2.52055 12.8169C2.62921 11.9818 2.72287 11.0038 2.79406 10.2252C3.19495 6.05741 3.37479 4.73711 4.46133 4.73711C5.54786 4.73711 5.73145 6.05741 6.13234 10.2252C6.1773 10.718 6.2335 11.2935 6.29345 11.8615C6.36464 11.1731 6.42833 10.4659 6.48078 9.8641C6.88543 5.31639 7.05403 4.00361 8.14805 4.00361C9.24208 4.00361 9.41443 5.31639 9.81907 9.8641C9.85653 10.3155 9.90524 10.8308 9.95395 11.3499C10.0326 10.4058 10.1038 9.3939 10.1675 8.50618C10.6021 2.36358 10.7632 1.26897 11.8385 1.26897C12.9138 1.26897 13.0749 2.36358 13.5058 8.50994C13.5582 9.23592 13.6144 10.0447 13.6781 10.8308C13.7456 9.98823 13.8055 9.11931 13.858 8.34067C14.2888 2.04761 14.4537 0.926665 15.5252 0.926665C16.5968 0.926665 16.7654 2.04761 17.1963 8.34067C17.2562 9.21335 17.3236 10.2026 17.3986 11.1355C17.4548 10.5299 17.5035 9.92804 17.5484 9.40143C17.9568 4.37976 18.1104 3.06322 19.2157 3.06322C20.321 3.06322 20.4746 4.37976 20.8867 9.40143C20.9617 10.3117 21.0516 11.4477 21.1602 12.4332C21.1902 12.2301 21.2202 12.0383 21.2427 11.869C21.5799 9.59703 21.8009 8.09617 22.9099 8.09617C24.019 8.09617 24.255 9.48042 24.566 11.0828C24.6147 11.3236 24.6746 11.632 24.7383 11.9292C24.7496 11.9818 24.757 12.0345 24.757 12.0872Z" fill="#FFCE1B"/>
</svg>
